<svg width="36" height="36" viewBox="0 0 36 36" fill="none" xmlns="http://www.w3.org/2000/svg">
<g clip-path="url(#clip0_87_285)">
<mask id="mask0_87_285" style="mask-type:luminance" maskUnits="userSpaceOnUse" x="0" y="1" width="36" height="34">
<path d="M27.4792 13.625H8.52083C7.71542 13.625 7.0625 14.2779 7.0625 15.0833V29.6667C7.0625 30.4721 7.71542 31.125 8.52083 31.125H27.4792C28.2846 31.125 28.9375 30.4721 28.9375 29.6667V15.0833C28.9375 14.2779 28.2846 13.625 27.4792 13.625Z" fill="white" stroke="white" stroke-width="5.83333"/>
<path d="M12.8958 20.9167C13.7012 20.9167 14.3542 20.2637 14.3542 19.4583C14.3542 18.6529 13.7012 18 12.8958 18C12.0904 18 11.4375 18.6529 11.4375 19.4583C11.4375 20.2637 12.0904 20.9167 12.8958 20.9167Z" fill="black"/>
<path d="M23.1048 20.9167C23.9102 20.9167 24.5632 20.2637 24.5632 19.4583C24.5632 18.6529 23.9102 18 23.1048 18C22.2994 18 21.6465 18.6529 21.6465 19.4583C21.6465 20.2637 22.2994 20.9167 23.1048 20.9167Z" fill="black"/>
<path d="M15.0833 23.8333C14.6966 23.8333 14.3256 23.9869 14.0521 24.2604C13.7786 24.5339 13.625 24.9048 13.625 25.2916C13.625 25.6784 13.7786 26.0493 14.0521 26.3228C14.3256 26.5963 14.6966 26.7499 15.0833 26.7499V23.8333ZM20.9167 26.7499C21.3034 26.7499 21.6744 26.5963 21.9479 26.3228C22.2214 26.0493 22.375 25.6784 22.375 25.2916C22.375 24.9048 22.2214 24.5339 21.9479 24.2604C21.6744 23.9869 21.3034 23.8333 20.9167 23.8333V26.7499ZM15.0833 26.7499H20.9167V23.8333H15.0833V26.7499Z" fill="black"/>
<path d="M18.0003 7.79175V13.6251M3.41699 19.4584V25.2917M32.5837 19.4584V25.2917" stroke="white" stroke-width="5.83333" stroke-linecap="round" stroke-linejoin="round"/>
<path d="M18.0003 7.79167C18.8057 7.79167 19.4587 7.13875 19.4587 6.33333C19.4587 5.52792 18.8057 4.875 18.0003 4.875C17.1949 4.875 16.542 5.52792 16.542 6.33333C16.542 7.13875 17.1949 7.79167 18.0003 7.79167Z" stroke="white" stroke-width="5.83333"/>
</mask>
<g mask="url(#mask0_87_285)">
<path d="M0.5 0.5H35.5V35.5H0.5V0.5Z" fill="white"/>
</g>
</g>
<defs>
<clipPath id="clip0_87_285">
<rect width="35" height="35" fill="white" transform="translate(0.5 0.5)"/>
</clipPath>
</defs>
</svg>
